<?xml version="1.0" encoding="UTF-8"?>
<svg xmlns="http://www.w3.org/2000/svg" viewBox="0 0 465.2 167.6">
  <path fill="#9b3220" d="M148.8,105.9c4.4,3.5,9,6.6,13.9,9.4,1.5.8,3,1.6,4.6,2.2v.3c18.6,10.2,41.8,17.4,69.2,21.6,80.2,6.9,144.5-4.3,192.7-33.8,18,2.8,30,9.7,36,20.7-60.1,32.8-127,46.1-200.7,39.7-42-2.7-76.8-11.5-104-26.6h0c-34.8-20.6-52.3-46.7-57.3-78.1l-5.5-40.9-21.7,75.9h-24.3c0-1.1-1.6-7.8-4.8-20.3-1.9-7.5-4.3-16-6.8-25.4-2.6-9.5-5.5-20.1-8.7-31.7l-5.2,55.9c-.3,3.8-.4,5.9-.4,6.4,0,1.2.2,2.5.4,3.7.3,1.3.7,2.8,1.1,4.1.4,1.4,1,2.7,1.6,4,.7,1.3,1.2,2.4,1.8,3.2H0c0,.1.1-.2.3-.8,3.1-5.7,4.9-10.6,5.4-14.9L12,13c.3-3.7-.4-8.1-2.4-13h43.5l14.9,55.1L82.6,0h43.3c-2.4,3.6-3.7,7.8-3.7,12.1,0-.1.1,1.3.4,4.5.3,3,.7,7.7,1.1,13.9l2.1,24.3.4,5.2c2.2,17.4,9.6,32.6,22.5,45.9"/>
</svg>
